<svg width="16" height="17" viewBox="0 0 16 17" fill="none" xmlns="http://www.w3.org/2000/svg">
<path fill-rule="evenodd" clip-rule="evenodd" d="M6.69722 2.52433C7.02856 1.15856 8.97144 1.15856 9.30278 2.52433C9.35249 2.72951 9.44995 2.92005 9.58722 3.08044C9.72449 3.24084 9.89769 3.36655 10.0927 3.44736C10.2878 3.52816 10.4991 3.56177 10.7096 3.54545C10.9201 3.52913 11.1237 3.46335 11.304 3.35344C12.5041 2.62233 13.8784 3.99589 13.1473 5.19678C13.0376 5.37695 12.9719 5.58048 12.9556 5.79082C12.9393 6.00116 12.9729 6.21238 13.0536 6.4073C13.1343 6.60221 13.2599 6.77534 13.4201 6.9126C13.5803 7.04985 13.7707 7.14737 13.9757 7.19722C15.3414 7.52856 15.3414 9.47144 13.9757 9.80278C13.7705 9.85249 13.58 9.94995 13.4196 10.0872C13.2592 10.2245 13.1334 10.3977 13.0526 10.5927C12.9718 10.7878 12.9382 10.9991 12.9545 11.2096C12.9709 11.4201 13.0367 11.6237 13.1466 11.804C13.8777 13.0041 12.5041 14.3784 11.3032 13.6473C11.123 13.5376 10.9195 13.4719 10.7092 13.4556C10.4988 13.4393 10.2876 13.4729 10.0927 13.5536C9.89779 13.6343 9.72466 13.7599 9.5874 13.9201C9.45015 14.0803 9.35263 14.2707 9.30278 14.4757C8.97144 15.8414 7.02856 15.8414 6.69722 14.4757C6.64751 14.2705 6.55005 14.08 6.41278 13.9196C6.27551 13.7592 6.10231 13.6334 5.90727 13.5526C5.71223 13.4718 5.50087 13.4382 5.29039 13.4545C5.07991 13.4709 4.87625 13.5367 4.696 13.6466C3.49589 14.3777 2.12156 13.0041 2.85267 11.8032C2.96241 11.623 3.0281 11.4195 3.04438 11.2092C3.06066 10.9988 3.02708 10.7876 2.94637 10.5927C2.86566 10.3978 2.74009 10.2247 2.57988 10.0874C2.41967 9.95015 2.22933 9.85263 2.02433 9.80278C0.658556 9.47144 0.658556 7.52856 2.02433 7.19722C2.22951 7.14751 2.42005 7.05005 2.58044 6.91278C2.74084 6.77551 2.86655 6.60231 2.94736 6.40727C3.02816 6.21223 3.06177 6.00087 3.04545 5.79039C3.02913 5.57991 2.96335 5.37625 2.85344 5.196C2.12233 3.99589 3.49589 2.62156 4.69678 3.35267C5.47456 3.82556 6.48256 3.40711 6.69722 2.52433ZM8 11.125C9.44975 11.125 10.625 9.94975 10.625 8.5C10.625 7.05025 9.44975 5.875 8 5.875C6.55025 5.875 5.375 7.05025 5.375 8.5C5.375 9.94975 6.55025 11.125 8 11.125Z" fill="#B0B6BD"/>
</svg>
