<svg width="14" height="14" viewBox="0 0 14 14" fill="none" xmlns="http://www.w3.org/2000/svg">
<path d="M7.27569 11.4208L10.4279 13.4179C10.8308 13.6732 11.3311 13.2935 11.2115 12.8232L10.3008 9.24052C10.2752 9.14073 10.2782 9.03573 10.3096 8.9376C10.3409 8.83946 10.3994 8.75218 10.4781 8.68577L13.3049 6.33306C13.6763 6.02392 13.4846 5.40751 13.0074 5.37654L9.31588 5.13696C9.21645 5.12986 9.12109 5.09465 9.04089 5.03545C8.96069 4.97625 8.89896 4.89548 8.86289 4.80255L7.48612 1.33549C7.44869 1.23685 7.38215 1.15194 7.29532 1.09201C7.2085 1.03209 7.1055 1 7 1C6.89451 1 6.79151 1.03209 6.70468 1.09201C6.61786 1.15194 6.55131 1.23685 6.51389 1.33549L5.13712 4.80255C5.10104 4.89548 5.03931 4.97625 4.95912 5.03545C4.87892 5.09465 4.78355 5.12986 4.68412 5.13696L0.992627 5.37654C0.515435 5.40751 0.323731 6.02392 0.695149 6.33306L3.52185 8.68577C3.60063 8.75218 3.65906 8.83946 3.69044 8.9376C3.72181 9.03573 3.72485 9.14073 3.6992 9.24052L2.85459 12.563C2.71111 13.1274 3.31143 13.583 3.79495 13.2767L6.72431 11.4208C6.8067 11.3683 6.90234 11.3405 7 11.3405C7.09767 11.3405 7.1933 11.3683 7.27569 11.4208Z" fill="#297EFF" stroke="#297EFF" stroke-linecap="round" stroke-linejoin="round"/>
</svg>
