<svg width="23" height="23" viewBox="0 0 23 23" fill="none" xmlns="http://www.w3.org/2000/svg">
<path d="M9.03549 12.1866C8.0238 11.001 7.41162 9.46408 7.41162 7.78222C7.4084 4.03508 10.4467 1 14.1938 1C17.941 1 20.9761 4.03508 20.9761 7.78222C20.9761 11.0364 18.6885 13.7525 15.6341 14.413" stroke="black" stroke-width="0.9" stroke-linecap="round" stroke-linejoin="round"/>
<path d="M14.1932 5.64746L12.6037 10.0529L11.0142 5.64746" stroke="#0B70F4" stroke-width="0.9" stroke-linecap="round" stroke-linejoin="round"/>
<path d="M17.3719 5.64746L15.7824 10.0529L14.1929 5.64746" stroke="#0B70F4" stroke-width="0.9" stroke-linecap="round" stroke-linejoin="round"/>
<path d="M9.93945 7.4502H11.3632" stroke="#0B70F4" stroke-width="0.9" stroke-linecap="round" stroke-linejoin="round"/>
<path d="M16.7764 7.4502H18.2" stroke="#0B70F4" stroke-width="0.9" stroke-linecap="round" stroke-linejoin="round"/>
<path d="M11.1554 15.7122L14.7994 16.9108C15.4696 17.1557 16.2074 16.8077 16.4523 16.1408C16.6972 15.4706 16.3492 14.7328 15.6823 14.4879L9.66043 12.4387C8.75184 12.1359 7.76592 12.181 6.88955 12.5644L4.16699 13.7759" stroke="black" stroke-width="0.9" stroke-linecap="round" stroke-linejoin="round"/>
<path d="M16.4103 16.3208L20.2412 14.7613C20.8856 14.4617 21.6524 14.7388 21.9553 15.3832C22.2549 16.0276 21.9778 16.7944 21.3334 17.0973L15.492 19.8198L15.2471 19.9229C14.1517 20.3933 12.8983 20.3289 11.8544 19.7522L9.53783 18.473C8.48748 17.8931 7.22447 17.8319 6.12256 18.3119" stroke="black" stroke-width="0.9" stroke-linecap="round" stroke-linejoin="round"/>
<path d="M1.12207 14.0976L3.14868 13.1664C3.47088 13.015 3.85429 13.1503 4.00572 13.4725L6.13866 18.4956C6.29009 18.8178 6.15477 19.2012 5.83257 19.3526L1.12529 21.6885" stroke="black" stroke-width="0.9" stroke-linecap="round" stroke-linejoin="round"/>
<path d="M2.61028 16.3211C2.78823 16.3211 2.93248 16.1769 2.93248 15.999C2.93248 15.821 2.78823 15.6768 2.61028 15.6768C2.43234 15.6768 2.28809 15.821 2.28809 15.999C2.28809 16.1769 2.43234 16.3211 2.61028 16.3211Z" stroke="black" stroke-width="0.9" stroke-linecap="round" stroke-linejoin="round"/>
</svg>
