<svg width="23" height="20" viewBox="0 0 23 20" fill="none" xmlns="http://www.w3.org/2000/svg">
<path d="M11.8486 13.7626H2.52979V1.33862C2.52979 1.15238 2.68216 1 2.86841 1H19.7284C19.9146 1 20.067 1.15238 20.067 1.33862V13.7626H18.2791" stroke="black" stroke-width="0.9" stroke-linecap="round" stroke-linejoin="round"/>
<path d="M20.0701 13.7627L22.0342 17.8329C22.1324 18.0564 21.9698 18.3104 21.726 18.3104H0.877102C0.633295 18.3104 0.467371 18.0564 0.568957 17.8329L2.53296 13.7627" stroke="black" stroke-width="0.9" stroke-linecap="round" stroke-linejoin="round"/>
<path d="M5.45508 5.38477H12.7625" stroke="black" stroke-width="0.9" stroke-linecap="round" stroke-linejoin="round"/>
<path d="M5.45508 8.30762H9.1088" stroke="black" stroke-width="0.9" stroke-linecap="round" stroke-linejoin="round"/>
<path d="M18.0658 13.7866C18.0658 15.456 16.7114 16.8105 15.042 16.8105C13.3726 16.8105 12.0181 15.456 12.0181 13.7866C12.0181 12.1172 13.3726 10.7627 15.042 10.7627C16.7114 10.7627 18.0658 12.1172 18.0658 13.7866Z" stroke="#0B70F4" stroke-width="0.9" stroke-linecap="round" stroke-linejoin="round"/>
<path d="M17.104 15.9873L20.0906 19.2855" stroke="#0B70F4" stroke-width="0.9" stroke-linecap="round" stroke-linejoin="round"/>
</svg>
