<svg width="24" height="24" viewBox="0 0 24 24" fill="none" xmlns="http://www.w3.org/2000/svg">
<path fill-rule="evenodd" clip-rule="evenodd" d="M12 22.5C17.799 22.5 22.5 17.799 22.5 12C22.5 6.20101 17.799 1.5 12 1.5C6.20101 1.5 1.5 6.20101 1.5 12C1.5 17.799 6.20101 22.5 12 22.5ZM7.4871 9.09972C7.04776 8.66038 7.04776 7.94807 7.4871 7.50873C7.92644 7.06939 8.63875 7.06939 9.07809 7.50873L12.0172 10.4478L14.9563 7.50873C15.3956 7.06939 16.1079 7.06939 16.5473 7.50873C16.9866 7.94807 16.9866 8.66038 16.5473 9.09972L13.6082 12.0388L16.5473 14.9779C16.9866 15.4173 16.9866 16.1296 16.5473 16.5689C16.1079 17.0082 15.3956 17.0082 14.9563 16.5689L12.0172 13.6298L9.07809 16.5689C8.63875 17.0082 7.92644 17.0082 7.4871 16.5689C7.04776 16.1296 7.04776 15.4173 7.4871 14.9779L10.4262 12.0388L7.4871 9.09972Z" fill="#939393"/>
</svg>
