<svg width="20" height="20" viewBox="0 0 20 20" fill="none" xmlns="http://www.w3.org/2000/svg">
<rect width="20" height="19.798" rx="9.89898" fill="#297EFF"/>
<path fill-rule="evenodd" clip-rule="evenodd" d="M9.00304 13.6815C8.85545 13.8368 8.61614 13.8368 8.46772 13.6815L8.34932 13.5583H8.34848L8.22257 13.4256L7.66557 12.841C7.6639 12.8401 7.66473 12.8358 7.66223 12.8332L5.11069 10.1415C4.9631 9.98714 4.9631 9.73645 5.11069 9.58205L5.91368 8.74064C6.06127 8.58624 6.30141 8.58624 6.449 8.74064L8.73872 11.1564L13.5516 6.1158C13.6992 5.9614 13.9385 5.9614 14.0861 6.1158L14.8899 6.95721C15.0367 7.11074 15.0367 7.3623 14.8899 7.5167L9.00304 13.6815Z" fill="white"/>
<mask id="mask0_530_28918" style="mask-type:luminance" maskUnits="userSpaceOnUse" x="5" y="6" width="10" height="8">
<path fill-rule="evenodd" clip-rule="evenodd" d="M9.00304 13.6815C8.85545 13.8368 8.61614 13.8368 8.46772 13.6815L8.34932 13.5583H8.34848L8.22257 13.4256L7.66557 12.841C7.6639 12.8401 7.66473 12.8358 7.66223 12.8332L5.11069 10.1415C4.9631 9.98714 4.9631 9.73645 5.11069 9.58205L5.91368 8.74064C6.06127 8.58624 6.30141 8.58624 6.449 8.74064L8.73872 11.1564L13.5516 6.1158C13.6992 5.9614 13.9385 5.9614 14.0861 6.1158L14.8899 6.95721C15.0367 7.11074 15.0367 7.3623 14.8899 7.5167L9.00304 13.6815Z" fill="white"/>
</mask>
<g mask="url(#mask0_530_28918)">
<rect y="-0.498047" width="20" height="20.7946" fill="white"/>
</g>
</svg>
