<svg width="16" height="16" viewBox="0 0 16 16" fill="none" xmlns="http://www.w3.org/2000/svg">
<path fill-rule="evenodd" clip-rule="evenodd" d="M15.0303 2.03131C15.3232 1.73841 15.3232 1.26354 15.0303 0.970646C14.7374 0.677753 14.2626 0.677753 13.9697 0.970646L8 6.94032L2.03033 0.970646C1.73744 0.677753 1.26256 0.677753 0.96967 0.970646C0.676777 1.26354 0.676777 1.73841 0.96967 2.03131L6.93934 8.00098L0.96967 13.9706C0.676777 14.2635 0.676777 14.7384 0.96967 15.0313C1.26256 15.3242 1.73744 15.3242 2.03033 15.0313L8 9.06164L13.9697 15.0313C14.2626 15.3242 14.7374 15.3242 15.0303 15.0313C15.3232 14.7384 15.3232 14.2635 15.0303 13.9706L9.06066 8.00098L15.0303 2.03131Z" fill="#222222"/>
</svg>
