<svg width="30" height="30" viewBox="0 0 30 30" fill="none" xmlns="http://www.w3.org/2000/svg">
<path d="M7 24.5V22C7 20.6739 7.52678 19.4021 8.46447 18.4645C9.40215 17.5268 10.6739 17 12 17H17C18.3261 17 19.5979 17.5268 20.5355 18.4645C21.4732 19.4021 22 20.6739 22 22V24.5M9.5 9C9.5 10.3261 10.0268 11.5979 10.9645 12.5355C11.9021 13.4732 13.1739 14 14.5 14C15.8261 14 17.0979 13.4732 18.0355 12.5355C18.9732 11.5979 19.5 10.3261 19.5 9C19.5 7.67392 18.9732 6.40215 18.0355 5.46447C17.0979 4.52678 15.8261 4 14.5 4C13.1739 4 11.9021 4.52678 10.9645 5.46447C10.0268 6.40215 9.5 7.67392 9.5 9Z" stroke="#222222" stroke-width="2" stroke-linecap="round" stroke-linejoin="round"/>
</svg>
