<svg width="21" height="20" viewBox="0 0 21 20" fill="none" xmlns="http://www.w3.org/2000/svg">
<path fill-rule="evenodd" clip-rule="evenodd" d="M2.52872 6.67366L8.76478 1.58353C9.71863 0.803967 11.2754 0.803967 12.2383 1.59271L18.4743 6.67366C19.1672 7.24228 19.6171 8.44373 19.4732 9.34253L18.2763 16.643C18.0604 17.9361 16.8276 19 15.5408 19H5.46228C4.16647 19 2.94266 17.9453 2.72669 16.643L1.52987 9.34253C1.37689 8.44373 1.82683 7.24228 2.52872 6.67366ZM11.25 12.8034C11.25 12.3892 10.9142 12.0534 10.5 12.0534C10.0858 12.0534 9.75 12.3892 9.75 12.8034V15.6159C9.75 16.0301 10.0858 16.3659 10.5 16.3659C10.9142 16.3659 11.25 16.0301 11.25 15.6159V12.8034Z" fill="#1076E3"/>
</svg>
