<svg width="20" height="20" viewBox="0 0 20 20" fill="none" xmlns="http://www.w3.org/2000/svg">
<path fill-rule="evenodd" clip-rule="evenodd" d="M2.02872 6.67366L8.26478 1.58353C9.21863 0.803967 10.7754 0.803967 11.7383 1.59271L17.9743 6.67366C18.6672 7.24228 19.1171 8.44373 18.9732 9.34253L17.7763 16.643C17.5604 17.9361 16.3276 19 15.0408 19H4.96228C3.66647 19 2.44266 17.9453 2.22669 16.643L1.02987 9.34253C0.876894 8.44373 1.32683 7.24228 2.02872 6.67366ZM10.75 12.8034C10.75 12.3892 10.4142 12.0534 10 12.0534C9.58579 12.0534 9.25 12.3892 9.25 12.8034V15.6159C9.25 16.0301 9.58579 16.3659 10 16.3659C10.4142 16.3659 10.75 16.0301 10.75 15.6159V12.8034Z" fill="#CCCCCC"/>
</svg>
