<svg width="20" height="20" viewBox="0 0 20 20" fill="none" xmlns="http://www.w3.org/2000/svg">
<g clip-path="url(#clip0_392_15113)">
<rect x="2" y="2" width="16" height="16" rx="2" fill="#CCCCCC" stroke="#CCCCCC" stroke-width="1.5"/>
<path d="M7.33543 5.24491C7.33689 5.60486 7.26857 5.96155 7.1344 6.29459C7.00022 6.62762 6.80278 6.93044 6.55346 7.18571C6.05433 7.70051 5.37529 7.99327 4.66474 8C3.95224 7.99422 3.27098 7.70143 2.77001 7.18571C2.52231 6.92984 2.32678 6.62662 2.19465 6.29354C2.06252 5.96046 1.99645 5.6041 2.00015 5.24491V4C2.00015 2.89543 2.89558 2 4.00015 2H7.33543V5.24491ZM12.6647 5.24491C12.6608 5.60467 12.7274 5.9616 12.8606 6.29485C12.9938 6.62809 13.191 6.93095 13.4406 7.18571C13.9415 7.70143 14.6228 7.99422 15.3353 8C16.0459 7.99327 16.7249 7.70051 17.224 7.18571C17.7237 6.66804 18.0026 5.97062 18 5.24491V3.22448C18 2.89973 17.8732 2.5883 17.6476 2.35866C17.422 2.12903 17.116 2 16.797 2H12.6647V5.24491ZM12.6647 2H7.33543H12.6647Z" fill="#CCCCCC"/>
<path d="M7.33543 5.24491C7.33689 5.60486 7.26857 5.96155 7.1344 6.29459C7.00022 6.62762 6.80278 6.93044 6.55346 7.18571C6.05433 7.70051 5.37529 7.99327 4.66474 8C3.95224 7.99422 3.27098 7.70143 2.77001 7.18571C2.52231 6.92984 2.32678 6.62662 2.19465 6.29354C2.06252 5.96046 1.99645 5.6041 2.00015 5.24491V4C2.00015 2.89543 2.89558 2 4.00015 2H7.33543M7.33543 5.24491V2M7.33543 5.24491C7.33173 5.6041 7.3978 5.96046 7.52994 6.29354C7.66207 6.62662 7.8576 6.92984 8.10529 7.18571C8.60626 7.70143 9.28753 7.99422 10 8C10.7106 7.99327 11.3896 7.70051 11.8887 7.18571C12.3884 6.66804 12.6673 5.97062 12.6647 5.24491M7.33543 2H12.6647M12.6647 5.24491C12.6608 5.60467 12.7274 5.9616 12.8606 6.29485C12.9938 6.62809 13.191 6.93095 13.4406 7.18571C13.9415 7.70143 14.6228 7.99422 15.3353 8C16.0459 7.99327 16.7249 7.70051 17.224 7.18571C17.7237 6.66804 18.0026 5.97062 18 5.24491V3.22448C18 2.89973 17.8732 2.5883 17.6476 2.35866C17.422 2.12903 17.116 2 16.797 2H12.6647M12.6647 5.24491V2" stroke="#CCCCCC" stroke-width="1.5"/>
<path d="M6.66929 5C6.66936 5.01933 6.66931 5.03866 6.66914 5.05797C6.6709 5.5598 6.75338 6.0568 6.91242 6.52246C7.07759 7.00605 7.322 7.44628 7.63162 7.81776C8.25783 8.56652 9.10941 8.99161 10 9C10.8882 8.99023 11.737 8.56518 12.3609 7.81776C12.974 7.08004 13.3211 6.09087 13.3307 5.05824C13.3306 5.03883 13.3307 5.01942 13.3309 5C13.3309 5.01943 13.3309 5.03884 13.3307 5.05824C13.3211 6.09087 12.974 7.08004 12.3609 7.81776C11.737 8.56518 10.8882 8.99023 10 9C9.10941 8.99161 8.25783 8.56652 7.63162 7.81776C7.322 7.44628 7.07759 7.00605 6.91242 6.52246C6.75338 6.0568 6.6709 5.5598 6.66914 5.05797C6.66907 5.03866 6.66912 5.01933 6.66929 5Z" fill="#CCCCCC"/>
<path d="M0.000184195 5C-0.00444286 5.52149 0.0781463 6.03887 0.243313 6.52246C0.40848 7.00605 0.652893 7.44628 0.962511 7.81776C1.58872 8.56652 2.4403 8.99161 3.33093 9C4.21911 8.99023 5.06792 8.56518 5.69182 7.81776C6.00348 7.44716 6.25027 7.0075 6.41799 6.52398C6.58572 6.04046 6.67112 5.52259 6.66929 5C6.66466 5.52149 6.74725 6.03887 6.91242 6.52246C7.07759 7.00605 7.322 7.44628 7.63162 7.81776C8.25783 8.56652 9.10941 8.99161 10 9C10.8882 8.99023 11.737 8.56518 12.3609 7.81776C12.9855 7.06618 13.3341 6.05362 13.3309 5C13.326 5.52232 13.4092 6.04053 13.5757 6.52436C13.7423 7.00819 13.9887 7.44789 14.3007 7.81776C14.9269 8.56652 15.7785 8.99161 16.6691 9C17.5573 8.99023 18.4061 8.56518 19.03 7.81776C19.6546 7.06618 20.0032 6.05362 20 5" stroke="white" stroke-width="1.5"/>
</g>
<defs>
<clipPath id="clip0_392_15113">
<rect width="20" height="20" fill="white"/>
</clipPath>
</defs>
</svg>
