<svg width="18" height="18" viewBox="0 0 18 18" fill="none" xmlns="http://www.w3.org/2000/svg">
<path d="M4.65019 9H1.34981C1.15662 9 1 9.20158 1 9.45025V16.5498C1 16.7984 1.15662 17 1.34981 17H4.65019C4.84338 17 5 16.7984 5 16.5498V9.45025C5 9.20158 4.84338 9 4.65019 9Z" fill="#CCCCCC" stroke="#CCCCCC" stroke-width="1.5" stroke-linecap="round" stroke-linejoin="round"/>
<path d="M7.35025 4H10.6497C10.8426 4 11 4.21012 11 4.46768V16.5323C11 16.7899 10.8426 17 10.6497 17H7.35025C7.15736 17 7 16.7899 7 16.5323V4.46768C7 4.21012 7.15736 4 7.35025 4Z" fill="#CCCCCC" stroke="#CCCCCC" stroke-width="1.5" stroke-linecap="round" stroke-linejoin="round"/>
<path d="M13.3503 1H16.6497C16.8426 1 17 1.19004 17 1.42299V16.577C17 16.81 16.8426 17 16.6497 17H13.3503C13.1574 17 13 16.81 13 16.577V1.42299C13 1.19004 13.1574 1 13.3503 1Z" fill="#CCCCCC" stroke="#CCCCCC" stroke-width="1.5" stroke-linecap="round" stroke-linejoin="round"/>
</svg>
