<svg width="20" height="20" viewBox="0 0 20 20" fill="none" xmlns="http://www.w3.org/2000/svg">
<path d="M7.00171 15H3.60611C2.34769 15 1.71847 15 1.58609 14.9023C1.43735 14.7925 1.40101 14.7277 1.38491 14.5436C1.37057 14.3797 1.75622 13.7486 2.52752 12.4866C3.32386 11.1835 4.00006 9.28622 4.00006 6.6C4.00006 5.11479 4.6322 3.69041 5.75742 2.6402C6.88264 1.59 8.40876 1 10.0001 1C11.5914 1 13.1175 1.59 14.2427 2.6402C15.3679 3.69041 16.0001 5.11479 16.0001 6.6C16.0001 9.28622 16.6763 11.1835 17.4726 12.4866C18.2439 13.7486 18.6296 14.3797 18.6152 14.5436C18.5991 14.7277 18.5628 14.7925 18.414 14.9023C18.2817 15 17.6524 15 16.394 15H13.0001M7.00171 15L7.00006 16C7.00006 17.6569 8.34321 19 10.0001 19C11.6569 19 13.0001 17.6569 13.0001 16V15M7.00171 15H13.0001" stroke="#222222" stroke-width="1.5" stroke-linecap="round" stroke-linejoin="round"/>
</svg>
