<svg width="30" height="30" viewBox="0 0 30 30" fill="none" xmlns="http://www.w3.org/2000/svg">
<path d="M14.9995 15C14.668 15 14.3501 14.8683 14.1156 14.6339C13.8812 14.3995 13.7495 14.0815 13.7495 13.75C13.7495 13.4185 13.8812 13.1005 14.1156 12.8661C14.3501 12.6317 14.668 12.5 14.9995 12.5C15.331 12.5 15.649 12.6317 15.8834 12.8661C16.1178 13.1005 16.2495 13.4185 16.2495 13.75C16.2495 14.0815 16.1178 14.3995 15.8834 14.6339C15.649 14.8683 15.331 15 14.9995 15ZM14.9995 15V18.125M14.9995 3.75C17.9193 6.33322 21.7301 7.67821 25.6245 7.5C26.1915 9.42877 26.365 11.4518 26.1347 13.449C25.9044 15.4461 25.2749 17.3766 24.2838 19.1257C23.2927 20.8747 21.96 22.4067 20.3651 23.6306C18.7702 24.8545 16.9455 25.7453 14.9995 26.25C13.0536 25.7453 11.2289 24.8545 9.63398 23.6306C8.03906 22.4067 6.70644 20.8747 5.71529 19.1257C4.72415 17.3766 4.09472 15.4461 3.86439 13.449C3.63407 11.4518 3.80756 9.42877 4.37455 7.5C8.26896 7.67821 12.0798 6.33322 14.9995 3.75Z" stroke="#222222" stroke-width="2" stroke-linecap="round" stroke-linejoin="round"/>
</svg>
