<svg width="20" height="18" viewBox="0 0 20 18" fill="none" xmlns="http://www.w3.org/2000/svg">
<path d="M16.25 1H3.25C2.69772 1 2.25 1.44772 2.25 2V10H17.25V2C17.25 1.44772 16.8023 1 16.25 1Z" fill="#CCCCCC" stroke="#CCCCCC" stroke-width="1.5" stroke-linecap="round" stroke-linejoin="round"/>
<path d="M17.7143 13L18.5802 15.694C18.7877 16.3395 18.3062 17 17.6282 17H2.37182C1.69378 17 1.2123 16.3395 1.41979 15.694L2.28571 13" fill="#CCCCCC"/>
<path d="M17.7143 13L18.5802 15.694C18.7877 16.3395 18.3062 17 17.6282 17H2.37182C1.69378 17 1.2123 16.3395 1.41979 15.694L2.28571 13H17.7143Z" stroke="#CCCCCC" stroke-width="1.5" stroke-linecap="round" stroke-linejoin="round"/>
<path d="M5.21582 4.18164H10.3587" stroke="white" stroke-width="1.5" stroke-linecap="round" stroke-linejoin="round"/>
<path d="M5.21582 6.72656H7.78725" stroke="white" stroke-width="1.5" stroke-linecap="round" stroke-linejoin="round"/>
</svg>
